<svg width="144" height="144" viewBox="0 0 144 144" fill="none" xmlns="http://www.w3.org/2000/svg">
<g opacity="0.3">
<path d="M77.9999 102C91.2547 102 102 91.2547 102 77.9999C102 64.7451 91.2547 54 77.9999 54C64.7451 54 54 64.7451 54 77.9999C54 91.2547 64.7451 102 77.9999 102Z" fill="#C4AFA0"/>
<path d="M132 30.0001H109.972C107.566 30.0001 105.308 29.0627 103.605 27.3634L98.6366 22.3945C95.8036 19.5615 92.0362 18 88.0284 18H67.9717C63.9638 18 60.1962 19.5615 57.3632 22.3945L52.3943 27.3634C50.6922 29.0627 48.4335 30.0001 46.0283 30.0001H36V27C36 25.3418 34.6582 23.9999 32.9999 23.9999H21.0001C19.3418 23.9999 18 25.3418 18 27V30.0001H12.0001C5.38172 30.0001 0 35.3818 0 41.9999V114C0 120.618 5.38172 126 12.0001 126H132C138.618 126 144 120.618 144 114V41.9999C144 35.3818 138.618 30.0001 132 30.0001ZM36 57.0001C36 58.6583 34.6582 60.0002 32.9999 60.0002H21.0001C19.3418 60.0002 18 58.6583 18 57.0001V51.0002C18 49.3419 19.3418 48.0001 21.0001 48.0001H33.0002C34.6584 48.0001 36.0003 49.3419 36.0003 51.0002V57.0001H36ZM77.9999 108C61.4588 108 47.9998 94.5411 47.9998 77.9999C47.9998 61.4588 61.4588 47.9998 77.9999 47.9998C94.5411 47.9998 108 61.459 108 77.9999C108 94.5408 94.5411 108 77.9999 108Z" fill="#C4AFA0"/>
</g>
</svg>
