<svg width="17" height="17" viewBox="0 0 17 17" xmlns="http://www.w3.org/2000/svg" fill="none">
    <path d="M7 14C3.12308 14 0 10.8769 0 7C0 3.12308 3.12308 0 7 0C10.8769 0 14 3.12308 14 7C14 10.8769 10.8769 14 7 14ZM7 1.07692C3.71538 1.07692 1.07692 3.71538 1.07692 7C1.07692 10.2846 3.71538 12.9231 7 12.9231C10.2846 12.9231 12.9231 10.2846 12.9231 7C12.9231 3.71538 10.2846 1.07692 7 1.07692Z" fill="#848388"/>
    <path d="M11.8162 11L17 16.1838L16.1838 17L11 11.8162L11.8162 11Z" fill="#848388"/>
</svg>
