<svg width="16" height="16" viewBox="0 0 16 16" fill="none" xmlns="http://www.w3.org/2000/svg">
<path d="M11.8217 10.9802L11.8217 10.9802L11.828 10.9823C12.8626 11.3178 13.9724 11.5044 15.12 11.5044C15.3239 11.5044 15.5 11.6806 15.5 11.8844V14.9511C15.5 15.1215 15.4549 15.2755 15.3874 15.3717C15.3342 15.4475 15.263 15.5 15.12 15.5C7.14706 15.5 0.5 8.86145 0.5 0.88C0.5 0.787733 0.51934 0.732748 0.537339 0.699547C0.555659 0.665755 0.583428 0.634644 0.62676 0.605677C0.722569 0.541631 0.879299 0.5 1.05778 0.5H4.13333C4.33719 0.5 4.51333 0.676142 4.51333 0.88C4.51333 2.02302 4.68963 3.13264 5.03513 4.17097C5.07656 4.30655 5.0483 4.45246 4.95138 4.56269L3.24034 6.01927L2.94665 6.26928L3.1139 6.61682C4.41869 9.3282 6.85955 11.6754 9.47361 12.9224L9.83225 13.0935L10.0799 12.7827L11.4557 11.0564C11.5017 11.0146 11.5576 10.9851 11.6182 10.9707C11.6856 10.9547 11.7561 10.958 11.8217 10.9802Z" stroke="#F88B3B"/>
</svg>
