<svg width="23" height="23" viewBox="0 0 23 23" fill="none" xmlns="http://www.w3.org/2000/svg">
<path d="M9.44652 18.6471C4.33386 18.6471 0.215332 14.5319 0.215332 9.42353C0.215332 4.31511 4.33386 0.199997 9.44652 0.199997C14.5592 0.199997 18.6777 4.31511 18.6777 9.42353C18.6777 14.5319 14.5592 18.6471 9.44652 18.6471ZM9.44652 1.619C5.11496 1.619 1.63551 5.09556 1.63551 9.42353C1.63551 13.7515 5.11496 17.2281 9.44652 17.2281C13.7781 17.2281 17.2575 13.7515 17.2575 9.42353C17.2575 5.09556 13.7781 1.619 9.44652 1.619Z" fill="white"/>
<path d="M15.7979 14.6941L22.6339 21.5245L21.5575 22.6L14.7215 15.7696L15.7979 14.6941Z" fill="white"/>
<path d="M9.55577 5.79999V13.2667M5.81934 9.53332H13.2922" stroke="white" stroke-width="2"/>
</svg>
