<svg width="10" height="11" viewBox="0 0 10 11" fill="none" xmlns="http://www.w3.org/2000/svg">
<path d="M8.6242 1.00661C7.28205 -0.335535 5.09645 -0.335535 3.75573 1.00661L0.0370575 4.72243C0.0128363 4.74665 1.31719e-05 4.77942 1.31719e-05 4.81361C1.31719e-05 4.84781 0.0128363 4.88058 0.0370575 4.9048L0.562801 5.43054C0.586832 5.45447 0.619363 5.4679 0.653274 5.4679C0.687185 5.4679 0.719716 5.45447 0.743747 5.43054L4.46242 1.71472C4.92405 1.25309 5.53813 0.999482 6.19067 0.999482C6.84322 0.999482 7.4573 1.25309 7.91751 1.71472C8.37914 2.17635 8.63275 2.79043 8.63275 3.44155C8.63275 4.0941 8.37914 4.70676 7.91751 5.16838L4.1276 8.95687L3.51352 9.57095C2.93933 10.1451 2.0061 10.1451 1.43192 9.57095C1.15408 9.29312 1.00163 8.9241 1.00163 8.53086C1.00163 8.13762 1.15408 7.7686 1.43192 7.49077L5.19191 3.73221C5.28737 3.63817 5.41275 3.58545 5.54668 3.58545H5.5481C5.68203 3.58545 5.80598 3.63817 5.90002 3.73221C5.99548 3.82767 6.04677 3.95305 6.04677 4.08698C6.04677 4.21948 5.99406 4.34486 5.90002 4.4389L2.82677 7.50929C2.80255 7.53351 2.78973 7.56629 2.78973 7.60048C2.78973 7.63467 2.80255 7.66744 2.82677 7.69167L3.35252 8.21741C3.37655 8.24133 3.40908 8.25477 3.44299 8.25477C3.4769 8.25477 3.50943 8.24133 3.53346 8.21741L6.60529 5.14559C6.88882 4.86206 7.04412 4.48591 7.04412 4.08555C7.04412 3.68519 6.88739 3.30762 6.60529 3.02552C6.0197 2.43993 5.06795 2.44136 4.48237 3.02552L4.11762 3.39168L0.723801 6.78408C0.493458 7.01307 0.310869 7.28552 0.186624 7.58561C0.0623787 7.88571 -0.00105102 8.20749 1.31719e-05 8.53228C1.31719e-05 9.19196 0.257898 9.81174 0.723801 10.2776C1.2068 10.7592 1.8394 11 2.472 11C3.10461 11 3.73721 10.7592 4.21878 10.2776L8.6242 5.87507C9.27247 5.22537 9.63151 4.36053 9.63151 3.44155C9.63294 2.52114 9.2739 1.6563 8.6242 1.00661Z" fill="#848388"/>
</svg>
