<svg width="144" height="108" viewBox="0 0 144 108" fill="none" xmlns="http://www.w3.org/2000/svg">
<path d="M77.9999 83.9998C91.2547 83.9998 102 73.2547 102 59.9999C102 46.7451 91.2547 36 77.9999 36C64.7451 36 54 46.7451 54 59.9999C54 73.2547 64.7451 83.9998 77.9999 83.9998Z" fill="#C4AFA0"/>
<path d="M132 12.0001H109.972C107.566 12.0001 105.308 11.0627 103.605 9.36337L98.6366 4.39453C95.8036 1.5615 92.0362 0 88.0284 0H67.9717C63.9638 0 60.1962 1.5615 57.3632 4.39453L52.3943 9.36337C50.6922 11.0627 48.4335 12.0001 46.0283 12.0001H36V9C36 7.34175 34.6582 5.99991 32.9999 5.99991H21.0001C19.3418 5.99991 18 7.34175 18 9V12.0001H12.0001C5.38172 12.0001 0 17.3818 0 23.9999V95.9999C0 102.618 5.38172 108 12.0001 108H132C138.618 108 144 102.618 144 95.9999V23.9999C144 17.3818 138.618 12.0001 132 12.0001ZM36 39.0001C36 40.6583 34.6582 42.0002 32.9999 42.0002H21.0001C19.3418 42.0002 18 40.6583 18 39.0001V33.0002C18 31.3419 19.3418 30.0001 21.0001 30.0001H33.0002C34.6584 30.0001 36.0003 31.3419 36.0003 33.0002V39.0001H36ZM77.9999 90C61.4588 90 47.9998 76.5411 47.9998 59.9999C47.9998 43.4588 61.4588 29.9998 77.9999 29.9998C94.5411 29.9998 108 43.459 108 59.9999C108 76.5408 94.5411 90 77.9999 90Z" fill="#C4AFA0"/>
</svg>
